<!DOCTYPE svg PUBLIC "-//W3C//DTD SVG 1.1//EN" "http://www.w3.org/Graphics/SVG/1.1/DTD/svg11.dtd">
<!-- Uploaded to: SVG Repo, www.svgrepo.com, Transformed by: SVG Repo Mixer Tools -->
<svg width="800px" height="800px" viewBox="0 0 25 25" version="1.1" xmlns="http://www.w3.org/2000/svg" xmlns:xlink="http://www.w3.org/1999/xlink" xmlns:sketch="http://www.bohemiancoding.com/sketch/ns" fill="#000000">
<g id="SVGRepo_bgCarrier" stroke-width="0"/>
<g id="SVGRepo_tracerCarrier" stroke-linecap="round" stroke-linejoin="round"/>
<g id="SVGRepo_iconCarrier"> <title>cross</title> <desc>Created with Sketch Beta.</desc> <defs> </defs> <g id="Page-1" stroke="none" stroke-width="1" fill="none" fill-rule="evenodd" sketch:type="MSPage"> <g id="Icon-Set-Filled" sketch:type="MSLayerGroup" transform="translate(-469.000000, -1041.000000)" fill="#ffffff"> <path d="M487.148,1053.48 L492.813,1047.82 C494.376,1046.26 494.376,1043.72 492.813,1042.16 C491.248,1040.59 488.712,1040.59 487.148,1042.16 L481.484,1047.82 L475.82,1042.16 C474.257,1040.59 471.721,1040.59 470.156,1042.16 C468.593,1043.72 468.593,1046.26 470.156,1047.82 L475.82,1053.48 L470.156,1059.15 C468.593,1060.71 468.593,1063.25 470.156,1064.81 C471.721,1066.38 474.257,1066.38 475.82,1064.81 L481.484,1059.15 L487.148,1064.81 C488.712,1066.38 491.248,1066.38 492.813,1064.81 C494.376,1063.25 494.376,1060.71 492.813,1059.15 L487.148,1053.48" id="cross" sketch:type="MSShapeGroup"> </path> </g> </g> </g>
</svg>