<?xml version="1.0" encoding="utf-8"?><!-- Uploaded to: SVG Repo, www.svgrepo.com, Generator: SVG Repo Mixer Tools -->
<svg width="800px" height="800px" viewBox="0 0 24 24" fill="none" xmlns="http://www.w3.org/2000/svg">
<path d="M3 8.2C3 7.07989 3 6.51984 3.21799 6.09202C3.40973 5.71569 3.71569 5.40973 4.09202 5.21799C4.51984 5 5.0799 5 6.2 5H9.67452C10.1637 5 10.4083 5 10.6385 5.05526C10.8425 5.10425 11.0376 5.18506 11.2166 5.29472C11.4184 5.4184 11.5914 5.59135 11.9373 5.93726L12.0627 6.06274C12.4086 6.40865 12.5816 6.5816 12.7834 6.70528C12.9624 6.81494 13.1575 6.89575 13.3615 6.94474C13.5917 7 13.8363 7 14.3255 7H17.8C18.9201 7 19.4802 7 19.908 7.21799C20.2843 7.40973 20.5903 7.71569 20.782 8.09202C21 8.51984 21 9.0799 21 10.2V15.8C21 16.9201 21 17.4802 20.782 17.908C20.5903 18.2843 20.2843 18.5903 19.908 18.782C19.4802 19 18.9201 19 17.8 19H6.2C5.07989 19 4.51984 19 4.09202 18.782C3.71569 18.5903 3.40973 18.2843 3.21799 17.908C3 17.4802 3 16.9201 3 15.8V8.2Z" stroke="#000000" stroke-width="2" stroke-linecap="round" stroke-linejoin="round"/>
<path fill-rule="evenodd" clip-rule="evenodd" d="M11.9976 10.7119C11.2978 9.9328 10.1309 9.72321 9.25414 10.4367C8.37738 11.1501 8.25394 12.343 8.94247 13.1868C9.33119 13.6632 10.2548 14.4983 10.9854 15.1353C11.3319 15.4374 11.5051 15.5885 11.7147 15.6503C11.8934 15.703 12.1018 15.703 12.2805 15.6503C12.4901 15.5885 12.6633 15.4374 13.0098 15.1353C13.7404 14.4983 14.664 13.6632 15.0527 13.1868C15.7413 12.343 15.6329 11.1426 14.7411 10.4367C13.8492 9.73072 12.6974 9.9328 11.9976 10.7119Z" stroke="#000000" stroke-width="2" stroke-linecap="round" stroke-linejoin="round"/>
</svg>